<?xml version="1.0" encoding="utf-8"?>
<!-- Generator: Adobe Illustrator 25.0.1, SVG Export Plug-In . SVG Version: 6.00 Build 0)  -->
<svg version="1.1" xmlns="http://www.w3.org/2000/svg" xmlns:xlink="http://www.w3.org/1999/xlink" x="0px" y="0px"
	 viewBox="0 0 32 32" style="enable-background:new 0 0 32 32;" xml:space="preserve">
<style type="text/css">
	.st0{fill:#FFFFFF;}
	.st1{fill:#00BAEA;}
	.st2{fill:none;stroke:#00BAEA;stroke-miterlimit:10;}
	.st3{fill:none;stroke:#FFFFFF;stroke-width:0.25;stroke-miterlimit:10;}
	.st4{fill:#FFFFFF;stroke:#000000;}
	.st5{fill:none;stroke:#000000;}
	.st6{fill:none;stroke:#707070;}
	.st7{fill:#FFFFFF;stroke:#00BAEA;}
	.st8{enable-background:new    ;}
</style>
<g id="Profile_1_">
</g>
<g id="Layer_1">
</g>
<g id="Layer_3">
	<g id="Group_99_1_" transform="translate(-2232.549 -2691.624)">
		<g id="Rectangle_27_3_" transform="translate(2232.549 2739) rotate(-45)">
			<path class="st7" d="M34.9-22.8L34.9-22.8c5.9,0,10.7,4.8,10.7,10.7l0,0c0,5.9-4.8,10.7-10.7,10.7H24.2c0,0-0.1,0-0.1-0.1l0,0
				v-10.7C24.2-18,29-22.8,34.9-22.8z"/>
		</g>
		<g class="st8">
			<path class="st1" d="M2252.4,2702.5v7.2h-0.9v-5.4l-2.4,5.4h-0.7l-2.4-5.4v5.4h-0.9v-7.2h1l2.7,5.9l2.7-5.9H2252.4z"/>
		</g>
	</g>
</g>
</svg>
