<?xml version="1.0" encoding="utf-8"?>
<!-- Generator: Adobe Illustrator 25.0.1, SVG Export Plug-In . SVG Version: 6.00 Build 0)  -->
<svg version="1.1" xmlns="http://www.w3.org/2000/svg" xmlns:xlink="http://www.w3.org/1999/xlink" x="0px" y="0px"
	 viewBox="0 0 32 32" style="enable-background:new 0 0 32 32;" xml:space="preserve">
<style type="text/css">
	.st0{fill:#FFFFFF;}
	.st1{fill:#00BAEA;}
	.st2{fill:none;stroke:#00BAEA;stroke-miterlimit:10;}
	.st3{fill:none;stroke:#FFFFFF;stroke-width:0.25;stroke-miterlimit:10;}
	.st4{fill:#FFFFFF;stroke:#000000;}
	.st5{fill:none;stroke:#000000;}
	.st6{fill:none;stroke:#707070;}
	.st7{fill:#FFFFFF;stroke:#00BAEA;}
	.st8{enable-background:new    ;}
</style>
<g id="Profile_1_">
</g>
<g id="Layer_1">
</g>
<g id="Layer_3">
	<g id="Group_103" transform="translate(-2232.549 -2691.624)">
		<g id="Rectangle_27_1_" transform="translate(2232.549 2739) rotate(-45)">
			<path class="st7" d="M34.4-22.8L34.4-22.8c6,0,10.9,4.8,11,10.8l0,0c0,6-4.8,10.9-10.8,11L23.8-0.9c0,0-0.1,0-0.1-0.1l0,0
				l-0.1-10.9C23.6-17.9,28.4-22.8,34.4-22.8z"/>
		</g>
		<g class="st8">
			<path class="st1" d="M2245.4,2704.5c0.3-0.6,0.8-1,1.3-1.4c0.6-0.3,1.2-0.5,1.9-0.5c0.8,0,1.5,0.2,2.1,0.6c0.6,0.4,1,0.9,1.3,1.6
				l-1.2,0c-0.2-0.4-0.5-0.8-0.9-1c-0.4-0.2-0.8-0.4-1.4-0.3c-0.5,0-1,0.1-1.4,0.4c-0.4,0.2-0.7,0.6-1,1c-0.2,0.4-0.3,1-0.3,1.6
				c0,0.6,0.1,1.1,0.4,1.5c0.2,0.4,0.6,0.8,1,1c0.4,0.2,0.9,0.4,1.4,0.3c0.5,0,1-0.1,1.4-0.4s0.7-0.6,0.9-1l1.2,0
				c-0.3,0.7-0.7,1.3-1.3,1.6c-0.6,0.4-1.3,0.6-2.1,0.6c-0.7,0-1.3-0.2-1.9-0.5c-0.6-0.3-1-0.8-1.3-1.3c-0.3-0.6-0.5-1.2-0.5-1.9
				C2244.9,2705.7,2245.1,2705.1,2245.4,2704.5z"/>
		</g>
	</g>
</g>
</svg>
