<?xml version="1.0" encoding="utf-8"?>
<!-- Generator: Adobe Illustrator 25.0.1, SVG Export Plug-In . SVG Version: 6.00 Build 0)  -->
<svg version="1.1" id="Layer_1" xmlns="http://www.w3.org/2000/svg" xmlns:xlink="http://www.w3.org/1999/xlink" x="0px" y="0px"
	 viewBox="0 0 58 33" style="enable-background:new 0 0 58 33;" xml:space="preserve">
<style type="text/css">
	.st0{fill:#FFFFFF;stroke:#707070;}
</style>
<g id="Group_74" transform="translate(-60 -419)">
	<g id="Group_72" transform="translate(2503 -1075.578)">
		<g id="Rectangle_37" transform="translate(-2443 1494.578)">
			<path class="st0" d="M49,0.5L49,0.5c4.69,0,8.5,3.81,8.5,8.5v23.28c0,0.12-0.1,0.22-0.22,0.22H40.72c-0.12,0-0.22-0.1-0.22-0.22
				V9C40.5,4.31,44.31,0.5,49,0.5z"/>
		</g>
	</g>
	<g id="Group_71" transform="translate(2525 -1091)">
		<g id="Ellipse_3" transform="translate(-2458 1533)">
			<ellipse class="st0" cx="-0.5" cy="5" rx="4" ry="4.5"/>
		</g>
		<g id="Ellipse_7" transform="translate(-2449 1533)">
			<ellipse class="st0" cx="-0.5" cy="5" rx="4" ry="4.5"/>
		</g>
		<g id="Ellipse_6" transform="translate(-2440 1533)">
			<circle class="st0" cx="0" cy="5" r="4.5"/>
		</g>
		<g id="Ellipse_8" transform="translate(-2430 1533)">
			<circle class="st0" cx="0" cy="5" r="4.5"/>
		</g>
		<g id="Ellipse_5" transform="translate(-2420 1533)">
			<ellipse class="st0" cx="-0.5" cy="5" rx="4" ry="4.5"/>
		</g>
		<g id="Rectangle_32" transform="translate(-2460 1521)">
			<path class="st0" d="M-4.05,0.5h34c9.69,0,17.55,7.86,17.55,17.55l0,0l0,0c0,0.25-0.2,0.45-0.45,0.45l0,0h-51.1
				c-0.25,0-0.45-0.2-0.45-0.45l0,0V0.95C-4.5,0.7-4.3,0.5-4.05,0.5L-4.05,0.5z"/>
		</g>
		<g id="Rectangle_33" transform="translate(-2421 1526)">
			<path class="st0" d="M-4.3,0.5L-4.3,0.5c3.2,0,5.8,2.6,5.8,5.8l0,0c0,0.11-0.09,0.2-0.2,0.2h-5.6c-0.11,0-0.2-0.09-0.2-0.2V0.7
				C-4.5,0.59-4.41,0.5-4.3,0.5z"/>
		</g>
		<g id="Rectangle_34" transform="translate(-2434 1526)">
			<rect x="-4.5" y="0.5" class="st0" width="8" height="6"/>
		</g>
		<g id="Rectangle_35" transform="translate(-2445 1526)">
			<rect x="-4.5" y="0.5" class="st0" width="8" height="6"/>
		</g>
		<g id="Rectangle_36" transform="translate(-2456 1526)">
			<rect x="-4.5" y="0.5" class="st0" width="8" height="6"/>
		</g>
	</g>
</g>
</svg>
