<?xml version="1.0" encoding="utf-8"?>
<!-- Generator: Adobe Illustrator 25.0.1, SVG Export Plug-In . SVG Version: 6.00 Build 0)  -->
<svg version="1.1" xmlns="http://www.w3.org/2000/svg" xmlns:xlink="http://www.w3.org/1999/xlink" x="0px" y="0px"
	 viewBox="0 0 32 32" style="enable-background:new 0 0 32 32;" xml:space="preserve">
<style type="text/css">
	.st0{fill:#FFFFFF;}
	.st1{fill:#00BAEA;}
	.st2{fill:none;stroke:#00BAEA;stroke-miterlimit:10;}
	.st3{fill:none;stroke:#FFFFFF;stroke-width:0.25;stroke-miterlimit:10;}
</style>
<g id="Profile_1_">
</g>
<g id="Layer_1">
	<g>
		<rect x="11.6" y="1.1" class="st1" width="15.8" height="30.3"/>
		<path class="st0" d="M27.3,1.3v30H11.8v-30H27.3 M27.5,1h-16v30.5h16V1L27.5,1z"/>
	</g>
	<rect x="14" y="11" class="st3" width="2" height="1"/>
	<rect x="17" y="11" class="st3" width="2" height="1"/>
	<rect x="20" y="11" class="st3" width="2" height="1"/>
	<rect x="23" y="11" class="st3" width="2" height="1"/>
	<rect x="14" y="9" class="st3" width="2" height="1"/>
	<rect x="17" y="9" class="st3" width="2" height="1"/>
	<rect x="20" y="9" class="st3" width="2" height="1"/>
	<rect x="23" y="9" class="st3" width="2" height="1"/>
	<rect x="14" y="15" class="st3" width="2" height="1"/>
	<rect x="17" y="15" class="st3" width="2" height="1"/>
	<rect x="20" y="15" class="st3" width="2" height="1"/>
	<rect x="23" y="15" class="st3" width="2" height="1"/>
	<rect x="14" y="13" class="st3" width="2" height="1"/>
	<rect x="17" y="13" class="st3" width="2" height="1"/>
	<rect x="20" y="13" class="st3" width="2" height="1"/>
	<rect x="23" y="13" class="st3" width="2" height="1"/>
	<rect x="14" y="5" class="st3" width="2" height="1"/>
	<rect x="17" y="5" class="st3" width="2" height="1"/>
	<rect x="20" y="5" class="st3" width="2" height="1"/>
	<rect x="23" y="5" class="st3" width="2" height="1"/>
	<rect x="14" y="3" class="st3" width="2" height="1"/>
	<rect x="17" y="3" class="st3" width="2" height="1"/>
	<rect x="20" y="3" class="st3" width="2" height="1"/>
	<rect x="23" y="3" class="st3" width="2" height="1"/>
	<rect x="14" y="7" class="st3" width="2" height="1"/>
	<rect x="17" y="7" class="st3" width="2" height="1"/>
	<rect x="20" y="7" class="st3" width="2" height="1"/>
	<rect x="23" y="7" class="st3" width="2" height="1"/>
	<rect x="14" y="19" class="st3" width="2" height="1"/>
	<rect x="17" y="19" class="st3" width="2" height="1"/>
	<rect x="20" y="19" class="st3" width="2" height="1"/>
	<rect x="23" y="19" class="st3" width="2" height="1"/>
	<rect x="14" y="17" class="st3" width="2" height="1"/>
	<rect x="17" y="17" class="st3" width="2" height="1"/>
	<rect x="20" y="17" class="st3" width="2" height="1"/>
	<rect x="23" y="17" class="st3" width="2" height="1"/>
	<rect x="14" y="23" class="st3" width="2" height="1"/>
	<rect x="17" y="23" class="st3" width="2" height="1"/>
	<rect x="20" y="23" class="st3" width="2" height="1"/>
	<rect x="23" y="23" class="st3" width="2" height="1"/>
	<rect x="14" y="21" class="st3" width="2" height="1"/>
	<rect x="17" y="21" class="st3" width="2" height="1"/>
	<rect x="20" y="21" class="st3" width="2" height="1"/>
	<rect x="23" y="21" class="st3" width="2" height="1"/>
	<rect x="14" y="25" class="st3" width="2" height="1"/>
	<rect x="17" y="25" class="st3" width="2" height="1"/>
	<rect x="20" y="25" class="st3" width="2" height="1"/>
	<rect x="23" y="25" class="st3" width="2" height="1"/>
	<rect x="14" y="29" class="st3" width="2" height="1"/>
	<rect x="17" y="29" class="st3" width="2" height="1"/>
	<rect x="20" y="29" class="st3" width="2" height="1"/>
	<rect x="23" y="29" class="st3" width="2" height="1"/>
	<rect x="14" y="27" class="st3" width="2" height="1"/>
	<rect x="17" y="27" class="st3" width="2" height="1"/>
	<rect x="20" y="27" class="st3" width="2" height="1"/>
	<rect x="23" y="27" class="st3" width="2" height="1"/>
	<g>
		<rect x="3.6" y="14.1" class="st1" width="8.8" height="17.3"/>
		<path class="st0" d="M12.3,14.3v17H3.8v-17H12.3 M12.5,14h-9v17.5h9V14L12.5,14z"/>
	</g>
	<rect x="5" y="15" class="st3" width="1.5" height="1"/>
	<rect x="7.3" y="15" class="st3" width="1.5" height="1"/>
	<rect x="9.5" y="15" class="st3" width="1.5" height="1"/>
	<rect x="5" y="19" class="st3" width="1.5" height="1"/>
	<rect x="7.3" y="19" class="st3" width="1.5" height="1"/>
	<rect x="9.5" y="19" class="st3" width="1.5" height="1"/>
	<rect x="5" y="17" class="st3" width="1.5" height="1"/>
	<rect x="7.3" y="17" class="st3" width="1.5" height="1"/>
	<rect x="9.5" y="17" class="st3" width="1.5" height="1"/>
	<rect x="5" y="23" class="st3" width="1.5" height="1"/>
	<rect x="7.3" y="23" class="st3" width="1.5" height="1"/>
	<rect x="9.5" y="23" class="st3" width="1.5" height="1"/>
	<rect x="5" y="21" class="st3" width="1.5" height="1"/>
	<rect x="7.3" y="21" class="st3" width="1.5" height="1"/>
	<rect x="9.5" y="21" class="st3" width="1.5" height="1"/>
	<rect x="5" y="25" class="st3" width="1.5" height="1"/>
	<rect x="7.3" y="25" class="st3" width="1.5" height="1"/>
	<rect x="9.5" y="25" class="st3" width="1.5" height="1"/>
	<rect x="5" y="29" class="st3" width="1.5" height="1"/>
	<rect x="7.3" y="29" class="st3" width="1.5" height="1"/>
	<rect x="9.5" y="29" class="st3" width="1.5" height="1"/>
	<rect x="5" y="27" class="st3" width="1.5" height="1"/>
	<rect x="7.3" y="27" class="st3" width="1.5" height="1"/>
	<rect x="9.5" y="27" class="st3" width="1.5" height="1"/>
</g>
</svg>
