<?xml version="1.0" encoding="utf-8"?>
<!-- Generator: Adobe Illustrator 25.0.1, SVG Export Plug-In . SVG Version: 6.00 Build 0)  -->
<svg version="1.1" xmlns="http://www.w3.org/2000/svg" xmlns:xlink="http://www.w3.org/1999/xlink" x="0px" y="0px"
	 viewBox="0 0 32 32" style="enable-background:new 0 0 32 32;" xml:space="preserve">
<style type="text/css">
	.st0{fill:#FFFFFF;}
	.st1{fill:#00BAEA;}
	.st2{fill:none;stroke:#00BAEA;stroke-miterlimit:10;}
	.st3{fill:none;stroke:#FFFFFF;stroke-width:0.25;stroke-miterlimit:10;}
	.st4{fill:#FFFFFF;stroke:#000000;}
	.st5{fill:none;stroke:#000000;}
	.st6{fill:none;stroke:#707070;}
	.st7{fill:#FFFFFF;stroke:#00BAEA;}
	.st8{enable-background:new    ;}
</style>
<g id="Profile_1_">
</g>
<g id="Layer_1">
</g>
<g id="Layer_3">
	<g id="Group_99" transform="translate(-2232.549 -2691.624)">
		<g id="Rectangle_27_2_" transform="translate(2232.549 2739) rotate(-45)">
			<path class="st7" d="M34.7-23L34.7-23c6,0,10.9,4.8,10.9,10.8l0,0c0,6-4.8,10.9-10.8,10.9L24.1-1.3c0,0-0.1,0-0.1-0.1l0,0
				L24-12.1C23.9-18.1,28.7-23,34.7-23z"/>
		</g>
		<g class="st8">
			<path class="st1" d="M2251,2702.3l0,0.8l-2,0l0,6.5l-1,0l0-6.5l-2,0l0-0.8L2251,2702.3z"/>
		</g>
	</g>
</g>
</svg>
