<?xml version="1.0" encoding="utf-8"?>
<!-- Generator: Adobe Illustrator 25.0.1, SVG Export Plug-In . SVG Version: 6.00 Build 0)  -->
<svg version="1.1" id="Layer_1" xmlns="http://www.w3.org/2000/svg" xmlns:xlink="http://www.w3.org/1999/xlink" x="0px" y="0px"
	 viewBox="0 0 32 32" style="enable-background:new 0 0 32 32;" xml:space="preserve">
<style type="text/css">
	.st0{fill:none;}
	.st1{fill:#00BAEA;}
	.st2{fill:none;stroke:#00BAEA;stroke-miterlimit:10;}
</style>
<g>
	<path class="st0" d="M3.5,31V18.9c0-2.7,2.2-4.9,4.9-4.9h15.2c2.7,0,4.9,2.2,4.9,4.9V31H3.5z"/>
	<path class="st1" d="M23.6,14.5c2.4,0,4.4,2,4.4,4.4v11.6H4V18.9c0-2.4,2-4.4,4.4-4.4H23.6 M23.6,13.5H8.4c-3,0-5.4,2.4-5.4,5.4
		v12.6h26V18.9C29,15.9,26.6,13.5,23.6,13.5L23.6,13.5z"/>
</g>
<g>
	<circle class="st0" cx="16" cy="7.5" r="6.5"/>
	<path class="st1" d="M16,1.5c3.3,0,6,2.7,6,6s-2.7,6-6,6s-6-2.7-6-6S12.7,1.5,16,1.5 M16,0.5c-3.9,0-7,3.1-7,7s3.1,7,7,7s7-3.1,7-7
		S19.9,0.5,16,0.5L16,0.5z"/>
</g>
<g>
	<line class="st2" x1="8.5" y1="21" x2="8.5" y2="31"/>
</g>
<line class="st2" x1="23.5" y1="21" x2="23.5" y2="31"/>
</svg>
